/* XPM */
static char *_2fbc5556a904020d89e90444a142d28A8Cm1uBOFs6f2wCB[] = {
/* columns rows colors chars-per-pixel */
"21 21 12 1 ",
"  c black",
". c #703800",
"X c #A05818",
"o c #D87018",
"O c #87C700",
"+ c #A7E700",
"@ c #C7FF00",
"# c #F89040",
"$ c #D0B860",
"% c #EFFF77",
"& c #F8F098",
"* c #F8F8F8",
/* pixels */
"@+@@@+@+O   OOO+O+@+O",
"++++++++ X#o +O++@@OO",
"++@%%%++ o##X @++@+OO",
"+@@@@@%+ XoXX O++@O+O",
"@@+OO+  Xo##oX %+@O++",
"@+O++ X$######o +++++",
"+O++ X*$##oXX##o +++@",
"+OO+ $#&#o##oX## %+@+",
"+@+ X####o###oX#o +++",
"++@ $$###o# #o #o @%%",
"@++ &$* #X# #o oo %@+",
"@++ $&  #X##X XoX +O+",
"@++@ &&$##X  Xoo +O++",
"@+++@ $&#####oo. OO++",
"++++@+ XoooooX. OO++@",
"++@++ XXooX...   +@@+",
"+@@++ #o ##Xo XoX O+@",
"@@+@@ X ooX X o#o +O+",
"@++@@+  *o    XoX ++O",
"@@++@++   oX +   ++@+",
"+@@++@++    @+@+OO++@"
};
