/* XPM */
static char *_a218f38ca4f417be5cdb38878b2107aFCR2geHrZ0pY1vtP[] = {
/* columns rows colors chars-per-pixel */
"21 21 12 1 ",
"  c black",
". c #703800",
"X c #A05818",
"o c #D87018",
"O c #87C700",
"+ c #A7E700",
"@ c #C7FF00",
"# c #F89040",
"$ c #D0B860",
"% c #EFFF77",
"& c #F8F098",
"* c #F8F8F8",
/* pixels */
"@+@@@+@+O   OOO+O+@+O",
"++++++++ o#X +O++@@OO",
"++@%%%+ X##o O@++@+OO",
"+@@@@@% XXoX OO++@O+O",
"@@+OO+ Xo##oX  %+@O++",
"@+O++ o######$X +++++",
"+O++ o##XXo##$*X +++@",
"+OO+ ##Xo##o#&#$ %+@+",
"+@+ o#Xo###o####X +++",
"++@ o# o# #o###$$ @%%",
"@++ oo o# #X# *$& %@+",
"@++ XoX X##X#  &$ +O+",
"@++@ ooX  X##$&& +O++",
"@+++ .oo#####&$ +OO++",
"++++@ .XoooooX +OO++@",
"++@+   ...XooXX ++@@+",
"+@@ XoX oX## o# @OO+@",
"@@+ o#o X Xoo X O++O+",
"@++ XoX    o*  O++++O",
"@@++   O Xo   @OO++@+",
"+@@++@++O    +@+OO++@"
};
