/* XPM */
static char *_ccabec917cd4159fbe01778cf0f9c6bzKFrcJTIqIkrI5aD[] = {
/* columns rows colors chars-per-pixel */
"21 21 49 1 ",
"  c black",
". c #000818",
"X c #172335",
"o c #132A3D",
"O c #703800",
"+ c #283858",
"@ c #354B5C",
"# c #485870",
"$ c #4B5C73",
"% c #4E5F75",
"& c #4F6177",
"* c #52667A",
"= c #54667B",
"- c #54687C",
"; c #586A7E",
": c #A05818",
"> c #D87018",
", c #F89040",
"< c #D0B860",
"1 c #5A7082",
"2 c #5D7385",
"3 c #5E7586",
"4 c #607788",
"5 c #607888",
"6 c #667C8B",
"7 c #657A8C",
"8 c #677F8D",
"9 c #687D8E",
"0 c #67808F",
"q c #6A828F",
"w c #6A8290",
"e c #6B8492",
"r c #6E8692",
"t c #728A96",
"y c #788F99",
"u c #79909A",
"i c #7C949D",
"p c #8098A0",
"a c #839CA4",
"s c #87A1A9",
"d c #8AA6AE",
"f c #8EABB3",
"g c #8DAAB4",
"h c #91AFB7",
"j c #92B0B8",
"k c #98B8C0",
"l c #A2C1C6",
"z c #A5C5CA",
"x c #AACACE",
/* pixels */
"#55555555555555555555",
"5++    +++++++    pp6",
"5+ :,>:       :>,: p6",
"5 :,,,>: :>: :>,,,: 6",
"5 >,,>>>:,,>:>>,,>> 6",
"5 :>>>>>>,,,>>>>>>: 6",
"5o :>>:>>,,,,>:>>: s6",
"5.. O:>>,,,,,,>:O ks6",
"5.X :>>,,,,,,,,>: ap6",
"5X@ :,,,,,,,,,,>: ks6",
"5#;t >,,,,,,,,>> lkf8",
"5#;t O>,,,,,,>>O xkf8",
"5#;t5 O:>,,>>:O 9xkj0",
"5##% : O:>>>:O : haa8",
"5#& :>:>>:::>::>: ks6",
"5#; <:O>,,,,>:O:< kd8",
"5#*6   :>O O::   lhh0",
"r#$*% >  >,>  > 2jda6",
"p-=w1% : ,,: : y2kks6",
"h2;iq&y  ::O  hy7zkj0",
"kgupiu854   38w55eww5"
};
