/* XPM */
static char *_892446edb404bdf9f41184919220a58FgB9jPWk27OQHg5B[] = {
/* columns rows colors chars-per-pixel */
"21 21 130 2 ",
"   c #225E1A",
".  c #29641A",
"X  c #2E681A",
"o  c #356C1A",
"O  c #16522D",
"+  c #1F5328",
"@  c #1E5429",
"#  c #1C572E",
"$  c #1E5F38",
"%  c #234A27",
"&  c #3F4F35",
"*  c #13622B",
"=  c #13632C",
"-  c #16602F",
";  c #0C7729",
":  c #0D762E",
">  c #097A2E",
",  c #0D782D",
"<  c #0B7E2F",
"1  c #0D7D2F",
"2  c #107D2F",
"3  c #0F6E31",
"4  c #1E6336",
"5  c #1C6437",
"6  c #156F31",
"7  c #116B35",
"8  c #196932",
"9  c #186834",
"0  c #146D3C",
"q  c #0D7133",
"w  c #097730",
"e  c #0D7631",
"r  c #0B7930",
"t  c #0C7831",
"y  c #0E7E31",
"u  c #0E7835",
"i  c #097E35",
"p  c #0F7E35",
"a  c #0C7039",
"s  c #147031",
"d  c #117036",
"f  c #107534",
"g  c #107831",
"h  c #107E33",
"j  c #107A36",
"k  c #127C37",
"l  c #127E3A",
"z  c #147F39",
"x  c #157B3C",
"c  c #187A39",
"v  c #276734",
"b  c #207131",
"n  c #4B7F17",
"m  c #607C19",
"M  c #49662B",
"N  c #49662F",
"B  c #547522",
"V  c #457135",
"C  c #187A42",
"Z  c #4C5645",
"A  c #5D5A4D",
"S  c #0F822D",
"D  c #0E852C",
"F  c #0E8C2E",
"G  c #0E8331",
"H  c #0E8E30",
"J  c #0F823B",
"K  c #108132",
"L  c #118136",
"P  c #128A32",
"I  c #138D33",
"U  c #128A35",
"Y  c #128D34",
"T  c #148E35",
"R  c #198C35",
"E  c #11803A",
"W  c #1A8738",
"Q  c #168A3A",
"!  c #118E3A",
"~  c #119030",
"^  c #119433",
"/  c #129235",
"(  c #149337",
")  c #129634",
"_  c #149238",
"`  c #199038",
"'  c #20953E",
"]  c #4A8214",
"[  c #659A0E",
"{  c #6F8C18",
"}  c #6EA905",
"|  c #70A807",
" . c #1A8A41",
".. c #1C8841",
"X. c #239640",
"o. c #259740",
"O. c #379745",
"+. c #37994D",
"@. c #38994D",
"#. c #2FA247",
"$. c #32A14A",
"%. c #39A64D",
"&. c #3BA84B",
"*. c #3BA751",
"=. c #3CA652",
"-. c #3FAA52",
";. c #43AC4F",
":. c #40AD50",
">. c #41AB54",
",. c #42AC54",
"<. c #42B153",
"1. c #46B350",
"2. c #46B552",
"3. c #4AB353",
"4. c #49BC54",
"5. c #4CBD56",
"6. c #56B36A",
"7. c #4EC356",
"8. c #4EC656",
"9. c #4AC65B",
"0. c #53D263",
"q. c #5BD661",
"w. c #83C300",
"e. c #87C700",
"r. c #9FDD01",
"t. c #A2E200",
"y. c #A7E700",
"u. c #C7FF00",
"i. c #D2E56B",
"p. c #EFFF77",
/* pixels */
"u.y.u.u.u.y.u.y.e.y.u.y.e.e.e.y.e.y.u.y.e.",
"y.y.y.y.y.y.y.y.y.u.u.e.e.y.e.y.y.u.u.e.e.",
"y.y.u.p.p.p.y.t.v b 6.b v w.u.y.y.u.y.e.e.",
"y.u.u.u.u.u.@ O.&.9.0.9.&.O.+ y.y.u.e.y.e.",
"u.u.y.e.e.o @.:.1.8.q.8.1.:.+.V y.u.e.y.y.",
"u.y.e.y.y.6 $.,.<.4.7.4.<.,.$.s y.y.y.y.y.",
"y.e.y.y.X W #.=.%.2.5.2.%.=.#.W . y.y.y.u.",
"y.e.e.]  .D F ' -.;.3.;.-.' F D ..i.y.u.y.",
"y.u.y.  ! / H o.*.-.>.-.*.o.H / Q | y.y.y.",
"y.y.u.8 1 _ ~ I X.R ` R ' Y / ( < - u.p.p.",
"u.y.y.c r K ~ ^ ~ ~ ~ ~ ~ ) T S > C p.u.y.",
"u.y.t.q l : P ) ^ ^ ) ^ ^ ) U ; k a t.e.y.",
"u.y.y.d u e 2 U G U ! U G U y , j 0 e.y.y.",
"u.y.y.5 q p L t e w i w e t L h q $ e.y.y.",
"y.y.y.n 3 g E j l E J E l j z t 3 } y.y.u.",
"y.y.u.[ 7 q e e k E E E k e f q 7 r.u.u.y.",
"y.u.u.y.O 7 9 * d q x q d = 9 7 O e.e.y.u.",
"u.u.y.u.u.u.N & % # 4 # % & M y.e.y.y.e.y.",
"u.y.y.u.u.y.e.m A Z B Z A { u.e.y.y.y.y.e.",
"u.u.y.y.u.y.y.e.e.y.y.u.y.y.u.e.e.y.y.u.y.",
"y.u.u.y.y.u.y.y.e.e.y.y.u.y.u.y.e.e.y.y.u."
};
