/* XPM */
static char *_89c6c86d58d44dbb573b9ae486405e8M8oHeG7efoM8gAU4[] = {
/* columns rows colors chars-per-pixel */
"21 21 76 1 ",
"  c black",
". c #071F00",
"X c #250000",
"o c #290300",
"O c #2D0600",
"+ c #340C00",
"@ c #102805",
"# c #223200",
"$ c #2A3A00",
"% c #400000",
"& c #4A0000",
"* c #4C0900",
"= c #6E0000",
"- c #691800",
"; c #413000",
": c #573D00",
"> c #324000",
", c #28570D",
"< c #1A7A00",
"1 c #3D6102",
"2 c #444B00",
"3 c #505700",
"4 c #436300",
"5 c #537300",
"6 c #547C00",
"7 c #637F00",
"8 c #6B602D",
"9 c #777F3B",
"0 c #930000",
"q c #9F0900",
"w c #911A00",
"e c #A30C00",
"r c #AA1200",
"t c #A01800",
"y c #B21800",
"u c #B61A00",
"i c #BA1D00",
"p c #AC1F14",
"a c #C22300",
"s c #C52600",
"d c #C92900",
"f c #CD2C00",
"g c #C82B05",
"h c #D12F00",
"j c #D83D0F",
"k c #CB3614",
"l c #CF3914",
"z c #C53D28",
"x c #DA4214",
"c c #D7451E",
"v c #DF4B1E",
"b c #DC4F28",
"n c #E45528",
"m c #E85E31",
"M c #ED673B",
"N c #EF6C40",
"B c #E86D46",
"V c #F67A4F",
"C c #278707",
"Z c #659500",
"A c #7C9F00",
"S c #42A014",
"D c #4FAD1A",
"F c #6EA200",
"G c #7DAD00",
"H c #88BC00",
"J c #95BF00",
"K c #87C700",
"L c #92CA00",
"P c #A7E700",
"I c #C7FF00",
"U c #F6916E",
"Y c #EFFF77",
"T c #F6B8A3",
"R c #F6D7CC",
"E c #F6F6F6",
/* pixels */
"IPIIIPIPKPIPKKKPKPIPK",
"PPPPPPPPPII#FPKPPIIKK",
"PPIYYYPPPI5,1ZIPPIPKK",
"PIIIIIYLGJ.S@4KPPIKPK",
"IIPKKPP9  <<.5PYPIKPP",
"IPKPP  -a0D0a-  PPPPP",
"PKPH>=wtq0C0qtw=$HPPI",
"PKZ3&zbkr0:0rkcy&8GIP",
"PI5oeVUBlpepgnMh0X5PP",
"PP7+hVRTVVhVxnMh0X7YY",
"IP5+hVVTEEVVVnhh0X9IP",
"IP5X0hMVVVVhhhhh0X5KP",
"IP5X0hjmNxxhhhse0X4PP",
"IPG3&ydxvhhhiaa0&2ZPP",
"PPPG 0ahfahheru0 ZPPI",
"PPIG 0aha0hhe000 GIIP",
"PIIPP =ya00000= IKKPI",
"IIPIIJ;O*000%X;GKPPKP",
"IPPIIP643&&&25AKPPPPK",
"IIPPIPPKF$$>HPIKKPPIP",
"PIIPPIPPKKPPIPIPKKPPI"
};
