/* XPM */
static char *bbb9ba75f2484ef0891b3c350e705e1fLTPtGsBbuB8Y0JgP[] = {
/* columns rows colors chars-per-pixel */
"21 21 4 1 ",
"  c #87C700",
". c #A7E700",
"X c #C7FF00",
"o c #EFFF77",
/* pixels */
"X.XXX.X. .X.   . .X. ",
".........XX  . ..XX  ",
"..Xooo...X.   X..X.  ",
".XXXXXo..X .   ..X . ",
"XX.  ..o.X ....o.X ..",
"X. ..................",
". ..XX......XXX.....X",
".  ...X..o.X.....o.X.",
".X. ....o.......o....",
"..XX...o..Xoo. o..Xoo",
"X..XX.ooXXoX. .oXXoX.",
"X..XXXoXXX. .XXXXX. .",
"X..XXXoXX. ...XXX. ..",
"X...XXXX.  ....X.  ..",
"....X...  ..XX..  ..X",
"..X..   ..XX.oX ..XX.",
".XX....XX  .XXoXX  .X",
"XX.XXXX. .. .XX. .. .",
"X..XX.  .... .X .... ",
"XX..X..  ..X..X  ..X.",
".XX..X..  ..X.X.  ..X"
};
