/* XPM */
static char *d2850e9474824c2181271c3f33889f6evFpb8mvz4A9nnD6H[] = {
/* columns rows colors chars-per-pixel */
"21 21 11 1 ",
"  c black",
". c #A05818",
"X c #D87018",
"o c #87C700",
"O c #A7E700",
"+ c #C7FF00",
"@ c #F89040",
"# c #D0B860",
"$ c #EFFF77",
"% c #F8F098",
"& c #F8F8F8",
/* pixels */
"+O+++O+OoO+OoooOoO+Oo",
"OOO    OO++ooO    +oo",
"OO X@X. O+Ooo .XX. oo",
"O X@@@X.     .@@@X. o",
"+ @   XX.XXX.@X   X O",
"+ X. ..X@@@@@X.. .X O",
"Oo .X.X@%&&&%@X.X. O+",
"Ooo  X@%&@@@%%@X  O+O",
"O+O .@@%&@@@@@@@. OOO",
"OO+ X@@X#&&%@X@@X +$$",
"+OO X@X &###& X@X $+O",
"+OO+ @X  %%%  X@ +OoO",
"+OO+ .@#%% %%#@. OoOO",
"+OOO+ .X#%%%#X. OooOO",
"OOOO X .X...X. . oOO+",
"OO+ X@ X@@@@@X X. ++O",
"O++ &. .X@@@X.  & oO+",
"++O+  .  ...  .  OOoO",
"+OO++ &@&   &@& OOOOo",
"++OO+O   OO+   ooOO+O",
"O++OO+OOooOO+O+OooOO+"
};
