/* XPM */
static char *_cb3b3f6274a477cf55a80e765a6fdaetXLVu5zn1yzV2DbG[] = {
/* columns rows colors chars-per-pixel */
"21 21 63 1 ",
"  c black",
". c #000818",
"X c #172335",
"o c #12293B",
"O c #132A3D",
"+ c #703800",
"@ c #1A2F45",
"# c #1C3048",
"$ c #223450",
"% c #243553",
"& c #253654",
"* c #283858",
"= c #354B5C",
"- c #354762",
"; c #374965",
": c #384A66",
"> c #41536D",
", c #485870",
"< c #4B5C73",
"1 c #4A5D74",
"2 c #4E5F75",
"3 c #4F6177",
"4 c #52667A",
"5 c #54667B",
"6 c #54687C",
"7 c #586A7E",
"8 c #A05818",
"9 c #D87018",
"0 c #F89040",
"q c #D0B860",
"w c #5D7385",
"e c #627987",
"r c #607788",
"t c #607888",
"y c #657D8B",
"u c #657A8C",
"i c #677F8D",
"p c #687D8E",
"a c #67808F",
"s c #69818F",
"d c #688190",
"f c #6B8492",
"g c #6E8692",
"h c #728A96",
"j c #788F99",
"k c #79909A",
"l c #7C949D",
"z c #8098A0",
"x c #839CA4",
"c c #859FA7",
"v c #87A1A9",
"b c #8AA6AE",
"n c #8EABB3",
"m c #8DAAB4",
"M c #91AFB7",
"N c #92B0B8",
"B c #95B4BC",
"V c #F8F098",
"C c #98B8C0",
"Z c #A2C1C6",
"A c #A5C5CA",
"S c #AACACE",
"D c #F8F8F8",
/* pixels */
",tttttttt   ttttttttt",
"t******* 908 ***>zzzy",
"t**&&*$ 8009 -:;1czzy",
"t**$$*# 8898 egwwnzzy",
"t#%@@@ 890098  wwnzzy",
"t$&@@ 9000000q8 wBMcy",
"tOOo 90088900qD8 SCvy",
"t... 00890090V0q SCvy",
"t.X 9089000900008 xzy",
"tX= 90 90 09000qq Cvy",
"t,7 99 90 080 DqV Cni",
"t,7 898 80080  Vq Cni",
"t,7h 998  800qVV SCNa",
"t,,2 +9900000Vq rMxxi",
"t,3t4 +8999998 jpSCvy",
"t,7h   +++89988 pSCbi",
"t,4 898 9800 90 uZMMa",
"g,< 909 8 899 8 wNbxy",
"z65 898    9D  jwCCvy",
"Mw7l   s 89   MjuACNa",
"Cmkzlkitr    idttfddt"
};
