/* XPM */
static char *_3a6478b2c1e4f43cf0f7d8fee2be9fdqNno13uTrTX7fZcI[] = {
/* columns rows colors chars-per-pixel */
"21 21 51 1 ",
"  c black",
". c #000818",
"X c #172335",
"o c #132A3D",
"O c #21334F",
"+ c #283858",
"@ c #354B5C",
"# c #485870",
"$ c #4B5D73",
"% c #4E5F75",
"& c #4F6177",
"* c #52667A",
"= c #54667B",
"- c #54687C",
"; c #586A7E",
": c #A05818",
"> c #D87018",
", c #F89040",
"< c #D0B860",
"1 c #5A6D80",
"2 c #5A7082",
"3 c #5D7385",
"4 c #5E7586",
"5 c #607788",
"6 c #607888",
"7 c #657D8B",
"8 c #657A8C",
"9 c #677F8D",
"0 c #67808F",
"q c #6A828F",
"w c #6A8290",
"e c #6B8492",
"r c #6E8692",
"t c #728A96",
"y c #768F9A",
"u c #788F99",
"i c #79909A",
"p c #7C949D",
"a c #8098A0",
"s c #839CA4",
"d c #87A1A9",
"f c #8AA6AE",
"g c #8EABB3",
"h c #8DAAB4",
"j c #91AFB7",
"k c #92B0B8",
"l c #F8F098",
"z c #98B8C0",
"x c #A5C5CA",
"c c #AACACE",
"v c #F8F8F8",
/* pixels */
"#66666666666666666666",
"6++    +++++++    aa7",
"6+ >,>: OOOOO :>>: a7",
"6 >,,,>:     :,,,>: 7",
"6 ,   >>:>>>:,>   > 7",
"6 >: ::>,,,,,>:: :> 7",
"6o :>:>,lvvvl,>:>: d7",
"6..  >,lv,,,ll,>  zd7",
"6.X :,,lv,,,,,,,: sa7",
"6X@ >,,><vvl,>,,> zd7",
"6#; >,> v<<<v >,> zg9",
"6#;t ,>  lll  >, czg9",
"6#;t :,<ll ll<,: czk0",
"6##%$ :><lll<>: 5jss9",
"6#&6 > :>:::>: : czd7",
"6#; >, >,,,,,> >: zf9",
"6#* v: :>,,,>:  v jj0",
"r#$*  :  :::  :  kfs7",
"a-=w2 v,v   v,v 3zzd7",
"j3;pq&   1dy   u8xzk0",
"zhiapi96547649w66eww6"
};
