/* XPM */
static char *_93ca804f08348dafe5e04eb9fcf59achI9jxwIKmllvPvVu[] = {
/* columns rows colors chars-per-pixel */
"21 21 73 1 ",
"  c #000818",
". c #172335",
"X c #12293B",
"o c #132A3D",
"O c #152B3F",
"+ c #1A2F45",
"@ c #1C3048",
"# c #21334F",
"$ c #223450",
"% c #243553",
"& c #253654",
"* c #273C53",
"= c #283858",
"- c #2D4554",
"; c #354B5C",
": c #354762",
"> c #374965",
", c #384A66",
"< c #405168",
"1 c #40526C",
"2 c #485870",
"3 c #485D73",
"4 c #4A5D74",
"5 c #4D5F75",
"6 c #4B6373",
"7 c #4F6177",
"8 c #506278",
"9 c #516479",
"0 c #54667B",
"q c #57697D",
"w c #576C7F",
"e c #586A7E",
"r c #586D80",
"t c #5A7082",
"y c #5D7385",
"u c #5E7586",
"i c #627987",
"p c #607788",
"a c #607888",
"s c #657D8B",
"d c #657A8C",
"f c #677F8D",
"g c #687D8E",
"h c #67808F",
"j c #69818F",
"k c #6E838D",
"l c #6A8290",
"z c #6B8492",
"x c #6E8692",
"c c #728A96",
"v c #768F9A",
"b c #788F99",
"n c #79909A",
"m c #7B939D",
"M c #7C949D",
"N c #7E98A2",
"B c #7E9AA5",
"V c #8098A0",
"C c #829DA7",
"Z c #859FA7",
"A c #86A1AA",
"S c #8AA6AE",
"D c #8EAAB2",
"F c #8DAAB5",
"G c #8FACB4",
"H c #91AFB7",
"J c #92B0B8",
"K c #94B2BA",
"L c #97B6BE",
"P c #98B8C0",
"I c #A2C1C6",
"U c #A5C5CA",
"Y c #AACACE",
/* pixels */
"2aaaaaaaaaaaaaaaaaaaa",
"a===============1VVVs",
"a==&&=$######:,>4ZVVs",
"a==$$=@++++++ixyyDVVs",
"a@%++++++*31,CVyyDVVs",
"a$&++OXXX-xy5FVyyLHZs",
"aooXXX6<<rBa7FVydYPAs",
"a     kayyDx7FPbgYPAs",
"a .222bsyyGc8FPbpHCVs",
"a.;y32bVyyPSeFHbdUPAs",
"a2ecr3bcyyKN0FSbpIPDf",
"a2eca7bcyyKN0FSbgYPDf",
"a2eca7bjyyHv9FHbgYPJh",
"a22532ba3yDx7FPbpHCCf",
"a27a92bVyyPSeFPbgYPAs",
"a2eca7bmyyLAqFCbgYPSf",
"a29sr5bawyDx7FPbdIHHh",
"x23952bx9yJm9FPbyJSCs",
"Vq0lt5bVyyPSeFSbyPPAs",
"HyeMj7bjyrAv9FHbdUPJh",
"PFnVMnfapusauflaazlla"
};
