/* XPM */
static char *e621b600f6d64c60a9bab1046ee78015fbSZbSb6AQxLlfzf[] = {
/* columns rows colors chars-per-pixel */
"21 21 62 1 ",
"  c black",
". c #000818",
"X c #172335",
"o c #12293B",
"O c #132A3D",
"+ c #703800",
"@ c #1A2F45",
"# c #1C3048",
"$ c #21334F",
"% c #223450",
"& c #243553",
"* c #253654",
"= c #283858",
"- c #354B5C",
"; c #374965",
": c #384A66",
"> c #41536D",
", c #485870",
"< c #4B5D73",
"1 c #4A5D74",
"2 c #4E5F75",
"3 c #4F6177",
"4 c #52667A",
"5 c #54667B",
"6 c #54687C",
"7 c #586A7E",
"8 c #A05818",
"9 c #D87018",
"0 c #F89040",
"q c #D0B860",
"w c #596F81",
"e c #5A7082",
"r c #5D7385",
"t c #5E7586",
"y c #607888",
"u c #667C8B",
"i c #677F8D",
"p c #687D8E",
"a c #67808F",
"s c #6A828F",
"d c #6A8290",
"f c #6B8492",
"g c #6E8692",
"h c #728A96",
"j c #788F99",
"k c #79909A",
"l c #7C949D",
"z c #8098A0",
"x c #839CA4",
"c c #859FA7",
"v c #87A1A9",
"b c #8AA6AE",
"n c #8EABB3",
"m c #8DAAB4",
"M c #91AFB7",
"N c #93B1B9",
"B c #95B4BC",
"V c #F8F098",
"C c #98B8C0",
"Z c #A5C5CA",
"A c #AACACE",
"S c #F8F8F8",
/* pixels */
",yyyyyyyy   yyyyyyyyy",
"y======= 809 ===>zzzu",
"y==**=%$ 9008 :;1czzu",
"y==%%=#@ 8988 grrnzzu",
"y#&@@@  890098 rrnzzu",
"y%*@@ 8q0000009 rBMcu",
"yOOo 8Sq00988009 ACvu",
"y... q0V09009800 ACvu",
"y.X 8000090009809 xzu",
"yX- qq00090 09 09 Cvu",
"y,7 VqS 080 09 99 Cni",
"y,7 qV  08008 898 Cni",
"y,7h VVq008  899 ACNa",
"y,,2< qV0000099+ Mxxi",
"y,3y4, 8999998+ pACvu",
"y,7hy 88998+++   ACbi",
"y,4uw 09 0089 898 MMa",
"g,<42 8 998 8 909 bxu",
"z65de2  S9    898 Cvu",
"Mr7ls3j   98 m   ZCNa",
"Cmkzlkiy    tidyyfddy"
};
